<svg id="Capa_1" enable-background="new 0 0 512 512" height="512" viewBox="0 0 512 512" width="512" xmlns="http://www.w3.org/2000/svg"><g><g><path d="m78.525 60.797h310.89v388.137h-310.89z" fill="#f4fbff"/></g><g><path d="m345.18 60.797v379.478c0 3.107-.729 6.036-1.994 8.659h46.228v-388.137z" fill="#e4f6ff"/></g><g><path d="m369.421 7.498h-270.903c-11.042 0-19.993 8.951-19.993 19.993v46.733h310.89v-46.733c-.001-11.042-8.952-19.993-19.994-19.993z" fill="#335995"/></g><g><path d="m78.525 433.778v50.731c0 11.042 8.951 19.993 19.993 19.993h270.904c11.042 0 19.993-8.951 19.993-19.993v-50.731z" fill="#335995"/></g><g><path d="m345.18 433.778v6.497c0 11.042-8.951 19.993-19.993 19.993h-246.662v24.241c0 11.042 8.951 19.993 19.993 19.993h270.904c11.042 0 19.993-8.951 19.993-19.993v-50.731z" fill="#21386b"/></g><g><circle cx="233.969" cy="468.641" fill="#4278c3" r="10.016"/></g><g><path d="m369.421 7.498h-24.241v66.726h44.234v-46.733c0-11.042-8.951-19.993-19.993-19.993z" fill="#21386b"/></g><g><g><path d="m229.422 394.112c-1.011 0-2.038-.103-3.067-.316-8.108-1.686-13.315-9.625-11.63-17.733l52.849-254.243c1.687-8.108 9.63-13.315 17.733-11.63 8.108 1.686 13.315 9.625 11.63 17.733l-52.849 254.243c-1.472 7.079-7.71 11.946-14.666 11.946z" fill="#df75a5"/></g></g><g><path d="m285.307 110.19c-3.65-.759-7.263-.109-10.291 1.564 5.594 3.1 8.778 9.578 7.408 16.169l-52.849 254.243c-.926 4.454-3.741 8.029-7.432 10.07 1.286.711 2.698 1.245 4.212 1.559 1.029.214 2.056.316 3.067.316 6.956 0 13.194-4.867 14.666-11.946l52.849-254.243c1.685-8.107-3.522-16.046-11.63-17.732z" fill="#dd5790"/></g><g><g><path d="m310.317 222.542h-149.976c-8.281 0-14.995-6.713-14.995-14.995 0-8.281 6.713-14.995 14.995-14.995h149.976c8.281 0 14.995 6.713 14.995 14.995-.001 8.282-6.714 14.995-14.995 14.995z" fill="#df75a5"/></g></g><g><path d="m317.325 194.127c-.865 7.459-7.195 13.252-14.885 13.252h-149.976c-2.533 0-4.916-.634-7.009-1.743-.066.573-.109 1.153-.109 1.743 0 8.281 6.713 14.995 14.995 14.995h149.976c8.281 0 14.995-6.713 14.995-14.995-.001-5.749-3.238-10.736-7.987-13.252z" fill="#dd5790"/></g><g><g><path d="m169.871 394.112c-1.011 0-2.038-.103-3.067-.316-8.108-1.686-13.315-9.625-11.63-17.733l52.849-254.243c1.686-8.108 9.629-13.315 17.733-11.63 8.108 1.686 13.315 9.625 11.63 17.733l-52.849 254.243c-1.473 7.079-7.711 11.946-14.666 11.946z" fill="#df75a5"/></g></g><g><path d="m225.756 110.19c-3.651-.759-7.263-.11-10.292 1.564 5.594 3.1 8.778 9.578 7.408 16.169l-52.849 254.243c-.926 4.454-3.741 8.029-7.432 10.07 1.286.711 2.698 1.245 4.212 1.559 1.029.214 2.056.316 3.067.316 6.956 0 13.194-4.867 14.666-11.946l52.849-254.243c1.685-8.107-3.521-16.046-11.629-17.732z" fill="#dd5790"/></g><g><g><path d="m292.226 310.028h-149.975c-8.281 0-14.995-6.713-14.995-14.995 0-8.281 6.713-14.995 14.995-14.995h149.976c8.281 0 14.995 6.713 14.995 14.995-.001 8.282-6.714 14.995-14.996 14.995z" fill="#df75a5"/></g></g><g><path d="m299.235 281.613c-.865 7.459-7.195 13.252-14.885 13.252h-149.976c-2.533 0-4.916-.634-7.009-1.743-.066.573-.109 1.153-.109 1.743 0 8.281 6.713 14.995 14.995 14.995h149.976c8.281 0 14.995-6.713 14.995-14.995-.001-5.749-3.239-10.736-7.987-13.252z" fill="#dd5790"/></g><g><path d="m472.767 370.588h-105.598c-16.77 0-30.364-13.595-30.364-30.364 0-16.77 13.595-30.364 30.364-30.364h105.598c16.77 0 30.364 13.595 30.364 30.364 0 16.769-13.594 30.364-30.364 30.364z" fill="#fff0af"/></g><g><path d="m140.349 167.903h-101.115c-16.77 0-30.364-13.595-30.364-30.364 0-16.77 13.595-30.364 30.364-30.364h101.115c16.77 0 30.364 13.595 30.364 30.364 0 16.77-13.595 30.364-30.364 30.364z" fill="#fff0af"/></g><g><path d="m472.767 479.299h-165.581c-16.77 0-30.364-13.595-30.364-30.364 0-16.77 13.595-30.364 30.364-30.364h165.581c16.77 0 30.364 13.595 30.364 30.364 0 16.769-13.594 30.364-30.364 30.364z" fill="#fff0af"/></g><g><path d="m492.355 317.03c-1.085 15.784-14.224 28.254-30.283 28.254h-105.597c-7.467 0-14.3-2.7-19.589-7.171-.048.698-.081 1.4-.081 2.11 0 16.77 13.595 30.364 30.364 30.364h105.598c16.77 0 30.364-13.595 30.364-30.364 0-9.302-4.187-17.623-10.776-23.193z" fill="#ffe07d"/></g><g><path d="m159.937 114.346c-1.085 15.784-14.224 28.254-30.283 28.254h-101.115c-7.467 0-14.3-2.7-19.589-7.171-.048.698-.081 1.4-.081 2.11 0 16.77 13.594 30.364 30.364 30.364h101.115c16.77 0 30.364-13.595 30.364-30.364.001-9.303-4.187-17.624-10.775-23.193z" fill="#ffe07d"/></g><g><path d="m492.355 425.741c-1.085 15.784-14.224 28.254-30.283 28.254h-165.58c-7.467 0-14.3-2.7-19.589-7.171-.048.698-.081 1.4-.081 2.11 0 16.77 13.595 30.364 30.364 30.364h165.581c16.77 0 30.364-13.595 30.364-30.364 0-9.302-4.187-17.623-10.776-23.193z" fill="#ffe07d"/></g><g><path d="m394.475 326.1h-144.551c-16.77 0-30.364-13.595-30.364-30.364 0-16.77 13.595-30.364 30.364-30.364h144.551c16.77 0 30.364 13.595 30.364 30.364 0 16.77-13.594 30.364-30.364 30.364z" fill="#fff0af"/></g><g><path d="m414.064 272.543c-1.085 15.784-14.224 28.254-30.283 28.254h-144.552c-7.467 0-14.3-2.7-19.589-7.171-.048.698-.081 1.4-.081 2.11 0 16.77 13.595 30.364 30.364 30.364h144.551c16.77 0 30.364-13.595 30.364-30.364.001-9.303-4.186-17.624-10.774-23.193z" fill="#ffe07d"/></g><g><path d="m210.658 33.47c-4.141 0-7.497 3.357-7.497 7.497s3.356 7.497 7.497 7.497h46.621c4.141 0 7.497-3.357 7.497-7.497s-3.356-7.497-7.497-7.497z"/><path d="m172.712 40.967c0 4.131 3.349 7.481 7.481 7.481 4.131 0 7.481-3.349 7.481-7.481s-3.349-7.481-7.481-7.481c-4.132.001-7.481 3.35-7.481 7.481z"/><path d="m472.767 411.073h-75.855v-32.987h75.855c20.877 0 37.862-16.985 37.862-37.862s-16.984-37.862-37.862-37.862h-20.981c-4.141 0-7.497 3.357-7.497 7.497 0 4.141 3.356 7.497 7.497 7.497h20.981c12.609 0 22.867 10.258 22.867 22.867s-10.258 22.867-22.867 22.867h-105.598c-12.609 0-22.867-10.258-22.867-22.867 0-2.284.33-4.499.974-6.626h20.136c-2.374 1.258-3.993 3.752-3.993 6.626 0 3.116 1.901 5.786 4.606 6.918l-.492 2.364c-.843 4.054 1.76 8.024 5.814 8.867 3.951.853 8.042-1.733 8.866-5.815l1.009-4.853c3.988-.173 7.17-3.451 7.17-7.481 0-2.874-1.619-5.368-3.993-6.626h10.075c20.877 0 37.862-16.985 37.862-37.862 0-20.058-15.68-36.513-35.425-37.775v-230.47c0-15.158-12.333-27.49-27.49-27.49h-45.222c-4.141 0-7.497 3.357-7.497 7.497s3.356 7.497 7.497 7.497h45.222c6.89 0 12.496 5.605 12.496 12.496v39.235h-295.895v-39.235c0-6.89 5.605-12.496 12.496-12.496h187.478c4.141 0 7.497-3.357 7.497-7.497s-3.357-7.497-7.498-7.497h-187.478c-15.158 0-27.49 12.332-27.49 27.49v72.187h-31.794c-20.877 0-37.862 16.985-37.862 37.862s16.985 37.861 37.862 37.861h31.794v166.822c0 4.141 3.356 7.497 7.497 7.497s7.497-3.357 7.497-7.497v-166.822h54.327c20.877 0 37.862-16.985 37.862-37.862s-16.984-37.862-37.862-37.862h-54.326v-17.956h295.895v176.154h-104.335l5.786-27.834h26.95c12.402 0 22.492-10.09 22.492-22.492s-10.09-22.492-22.492-22.492h-17.599l11.559-55.607c2.524-12.142-5.302-24.074-17.443-26.599-12.144-2.527-24.074 5.299-26.6 17.444l-13.462 64.761h-13.605l11.559-55.607c2.524-12.142-5.302-24.074-17.444-26.599-12.142-2.526-24.074 5.3-26.599 17.444l-13.462 64.761h-26.879c-12.402 0-22.492 10.09-22.492 22.492s10.09 22.492 22.492 22.492h17.529l-8.835 42.502h-26.784c-12.402 0-22.492 10.09-22.492 22.492s10.09 22.492 22.492 22.492h17.434l-11.851 57.012c-2.524 12.142 5.302 24.074 17.445 26.599 1.51.314 3.056.473 4.592.473 10.592 0 19.847-7.535 22.006-17.918l13.753-66.166h13.359c.063.09.127.179.191.268l-11.795 56.744c-2.524 12.142 5.302 24.074 17.445 26.599 1.51.314 3.056.473 4.592.473 10.592 0 19.847-7.535 22.006-17.918l10.413-50.095h68.057c-.388 2.183-.591 4.401-.591 6.626 0 20.877 16.984 37.862 37.862 37.862h14.748v32.987h-74.731c-12.389 0-23.408 5.982-30.319 15.209h-190.847v-49.355c0-4.141-3.356-7.497-7.497-7.497s-7.497 3.357-7.497 7.497v107.586c0 15.158 12.333 27.49 27.49 27.49h270.904c14.387 0 26.221-11.112 27.388-25.204h75.958c20.877 0 37.862-16.985 37.862-37.862s-16.986-37.861-37.863-37.861zm-309.552-273.534c0 12.609-10.258 22.867-22.867 22.867h-101.115c-12.609 0-22.867-10.258-22.867-22.867s10.258-22.867 22.867-22.867h101.115c12.609 0 22.867 10.258 22.867 22.867zm254.127 158.197c0 12.609-10.258 22.867-22.867 22.867h-144.551c-12.609 0-22.867-10.258-22.867-22.867s10.258-22.867 22.867-22.867h144.551c12.609 0 22.867 10.258 22.867 22.867zm-202.36-23.194 8.835-42.502h13.605l-6.901 33.2c-4.049 2.427-7.604 5.591-10.49 9.302zm47.285-14.668h-12.343c-1.011 0-2.01.052-3.001.13l5.813-27.964h15.317zm12.647-134.527c.843-4.048 4.82-6.657 8.867-5.817 4.047.842 6.656 4.82 5.815 8.867l-12.193 58.658h-15.316zm35.403 76.703c4.134 0 7.497 3.363 7.497 7.497s-3.363 7.497-7.497 7.497h-83.384l3.117-14.995h80.267zm-149.976 14.995c-4.134 0-7.497-3.363-7.497-7.497s3.363-7.497 7.497-7.497h23.762l-3.117 14.995h-20.645zm55.022-91.699c.842-4.048 4.816-6.655 8.867-5.816 4.047.842 6.656 4.82 5.815 8.867l-30.378 146.144h-15.317zm-38.166 257.294c-.795 4-4.892 6.693-8.867 5.816-4.047-.842-6.656-4.82-5.815-8.867l12.485-60.063h15.316zm-34.946-78.109c-4.134 0-7.497-3.363-7.497-7.497s3.363-7.497 7.497-7.497h70.716c-.586 2.642-.904 5.383-.904 8.199 0 2.321.221 4.589.623 6.795zm94.497 78.108c-.795 4.001-4.892 6.693-8.867 5.816-4.047-.842-6.656-4.82-5.815-8.867l10.07-48.443c4.37 2.336 9.249 3.836 14.424 4.294zm132.673 116.366h-270.904c-6.89 0-12.496-5.605-12.496-12.496v-43.234h184.082c-.51 2.474-.779 5.035-.779 7.658 0 20.877 16.984 37.862 37.862 37.862h74.511c-1.078 5.802-6.167 10.21-12.276 10.21zm103.346-25.204h-165.581c-12.609 0-22.867-10.258-22.867-22.867s10.258-22.867 22.867-22.867h165.581c12.609 0 22.867 10.258 22.867 22.867s-10.258 22.867-22.867 22.867z"/><path d="m324.482 441.845.53-2.549c.843-4.054-1.76-8.024-5.814-8.867-4.053-.842-8.025 1.761-8.866 5.815l-1.005 4.837h-.105c-4.141 0-7.497 3.357-7.497 7.497 0 3.116 1.901 5.786 4.606 6.918l-.492 2.364c-.843 4.054 1.76 8.024 5.814 8.867 3.951.853 8.042-1.733 8.866-5.815l1.009-4.853c3.988-.173 7.17-3.451 7.17-7.481-.001-2.961-1.722-5.515-4.216-6.733z"/><path d="m411.566 442.024h-60.729c-4.141 0-7.497 3.357-7.497 7.497 0 4.141 3.356 7.497 7.497 7.497h60.729c4.141 0 7.497-3.357 7.497-7.497.001-4.141-3.355-7.497-7.497-7.497z"/><path d="m455.176 442.024h-13.398c-4.141 0-7.497 3.357-7.497 7.497 0 4.141 3.356 7.497 7.497 7.497h13.398c4.141 0 7.497-3.357 7.497-7.497.001-4.141-3.356-7.497-7.497-7.497z"/><path d="m403.036 341.166c0 4.141 3.356 7.497 7.497 7.497h35.254c4.141 0 7.497-3.357 7.497-7.497 0-4.141-3.356-7.497-7.497-7.497h-35.254c-4.14 0-7.497 3.356-7.497 7.497z"/><path d="m32.091 137.539c0 3.116 1.901 5.786 4.606 6.918l-.492 2.364c-.843 4.054 1.76 8.024 5.814 8.867 3.951.853 8.042-1.733 8.866-5.815l1.009-4.853c3.988-.173 7.17-3.451 7.17-7.481 0-2.962-1.722-5.515-4.215-6.733l.53-2.549c.843-4.054-1.76-8.024-5.814-8.867-4.052-.844-8.025 1.761-8.866 5.815l-1.006 4.837h-.105c-4.14-.001-7.497 3.356-7.497 7.497z"/><path d="m81.207 145.979h44.251c4.141 0 7.497-3.357 7.497-7.497 0-4.141-3.356-7.497-7.497-7.497h-44.251c-4.141 0-7.497 3.357-7.497 7.497-.001 4.14 3.356 7.497 7.497 7.497z"/><path d="m265.095 289.112.53-2.549c.843-4.054-1.76-8.024-5.814-8.867-4.052-.842-8.025 1.761-8.866 5.815l-1.006 4.837h-.105c-4.141 0-7.497 3.357-7.497 7.497 0 3.116 1.901 5.786 4.606 6.918l-.492 2.364c-.843 4.054 1.76 8.024 5.814 8.867.514.107 1.028.158 1.534.158 3.477 0 6.597-2.434 7.332-5.973l1.009-4.853c3.988-.173 7.17-3.451 7.17-7.481 0-2.961-1.722-5.515-4.215-6.733z"/><path d="m379.953 289.291h-88.503c-4.141 0-7.497 3.357-7.497 7.497 0 4.141 3.356 7.497 7.497 7.497h88.502c4.141 0 7.497-3.357 7.497-7.497.001-4.141-3.355-7.497-7.496-7.497z"/><g><circle cx="233.969" cy="468.641" r="10.016"/></g></g></g></svg>